<svg xmlns="http://www.w3.org/2000/svg" width="20" height="26" viewBox="0 0 20 26">
    <path fill="#1C1C28" fill-rule="nonzero" d="M19.644 22.626c.547.98.329 1.705.22 2.176-.147.544-.803.906-1.46 1.088-.4.109-.802.145-1.093.072-.365-.072-.657-.181-.912-.362-.292-.218-.547-.472-.766-.653-.219-.218-.438-.435-.547-.616a1.354 1.354 0 0 0-.219-.29l-4.85-6.962-4.814 6.961a3.19 3.19 0 0 0-.255.29c-.11.182-.292.4-.474.617-.255.181-.547.435-.802.653a3.19 3.19 0 0 1-.912.362 1.965 1.965 0 0 1-1.021-.072C.973 25.708.463 25.346.17 24.802c-.547-1.16.328-2.683 1.094-3.807.182-.254.365-.435.547-.653.62-.834 1.203-1.668 1.86-2.61l3.391-4.896-4.996-7.18-.437-.616c-.183-.29-.402-.507-.584-.834C.864 3.952.645 3.662.5 3.3c-.146-.29-.292-.544-.365-.907a1.984 1.984 0 0 1-.073-.798c.073-.326.22-.58.475-.797C.718.58 1.01.435 1.265.29 1.739.11 2.104 0 2.54 0c.438.036.875.218 1.24.471.51.327.948.726 1.313 1.16.328.508.656.98 1.057 1.451l.037.145c1.203 1.596 2.115 3.01 3.319 4.641.182.254.328.472.51.726.182-.254.328-.472.51-.726a212.417 212.417 0 0 1 3.283-4.64l.073-.146c.364-.471.765-.943 1.094-1.45a5.777 5.777 0 0 1 1.312-1.16A2.344 2.344 0 0 1 17.53 0c.438 0 .84.109 1.24.29.255.145.474.29.657.508.291.217.474.471.547.797.036.254 0 .544-.073.798-.11.363-.22.617-.438.907a4.218 4.218 0 0 1-.474.906c-.182.327-.401.544-.547.834l-.438.617-5.032 7.18 3.391 4.894 1.97 2.756c.437.725.875 1.378 1.312 2.14z"/>
</svg>
