<svg xmlns="http://www.w3.org/2000/svg" xmlns:xlink="http://www.w3.org/1999/xlink" width="42" height="47" viewBox="0 0 42 47">
    <defs>
        <path id="a" d="M.018.07h3.833v14.254H.018z"/>
        <path id="c" d="M0 .066h19.21v19.21H0z"/>
        <path id="e" d="M0 .126h38.15V10.77H0z"/>
    </defs>
    <g fill="none" fill-rule="evenodd">
        <g transform="translate(18.352 23.21)">
            <mask id="b" fill="#fff">
                <use xlink:href="#a"/>
            </mask>
            <path fill="#887BB7" d="M.018.07v12.338c0 1.054.863 1.916 1.917 1.916a1.922 1.922 0 0 0 1.916-1.916V.13A11.122 11.122 0 0 1 .018.07" mask="url(#b)"/>
        </g>
        <path fill="#635C97" d="M21.881 19.684c-1.084.462-2.259.753-3.489.846-.007.07-.021.139-.021.21v2.54a11.126 11.126 0 0 0 3.832.06v-2.6a1.9 1.9 0 0 0-.322-1.056"/>
        <path fill="#E5227C" d="M26.69 2.368a11.007 11.007 0 0 1 1.92 6.228c0 6.11-4.952 11.062-11.061 11.062-2.31 0-4.454-.71-6.229-1.92a11.05 11.05 0 0 0 9.141 4.832c6.11 0 11.062-4.953 11.062-11.061 0-3.799-1.916-7.15-4.833-9.141"/>
        <g transform="translate(9.4 .382)">
            <mask id="d" fill="#fff">
                <use xlink:href="#c"/>
            </mask>
            <path fill="#E3599B" d="M19.21 8.214c0-2.31-.71-4.454-1.92-6.228A11.007 11.007 0 0 0 11.06.066C4.952.066 0 5.018 0 11.127c0 2.31.709 4.454 1.92 6.229a11.012 11.012 0 0 0 6.229 1.92c6.109 0 11.06-4.952 11.06-11.062" mask="url(#d)"/>
        </g>
        <path fill="#F4BCD5" d="M11.608 9.147a.895.895 0 0 1-.852-1.17c2.046-6.376 9.008-7.054 9.303-7.08a.885.885 0 0 1 .97.815.896.896 0 0 1-.813.97c-.256.022-6.08.617-7.756 5.842a.895.895 0 0 1-.852.623"/>
        <g>
            <path fill="#5B84C3" d="M30.753 45.21H10.427c-3.766 0-6.846-3.061-6.846-6.802v-3.407c0-3.74 3.08-6.801 6.846-6.801h20.326c3.766 0 6.847 3.06 6.847 6.801v3.407c0 3.74-3.081 6.802-6.847 6.802"/>
            <path fill="#54417C" d="M37.276 34.019c.443.9.699 1.906.699 2.97 0 3.76-3.107 6.837-6.905 6.837H3.448a6.889 6.889 0 0 1-3-.692A6.926 6.926 0 0 0 6.655 47h27.621c3.797 0 6.905-3.076 6.905-6.836 0-2.697-1.602-5.034-3.905-6.145"/>
            <g transform="translate(0 33.124)">
                <mask id="f" fill="#fff">
                    <use xlink:href="#e"/>
                </mask>
                <path fill="#635B95" d="M31.259 10.77c3.79 0 6.892-3.12 6.892-6.932a6.887 6.887 0 0 0-.698-3.01 6.785 6.785 0 0 0-2.994-.702H6.892C3.102.126 0 3.246 0 7.058c0 1.079.255 2.098.698 3.01a6.782 6.782 0 0 0 2.994.702h27.567z" mask="url(#f)"/>
            </g>
            <path fill="#A595C6" d="M15.566 37.152H7.262c-.548 0-.995-.402-.995-.895 0-.491.447-.895.995-.895h8.304c.548 0 .996.404.996.895 0 .493-.448.895-.996.895M19.537 37.152h-.578c-.58 0-1.054-.402-1.054-.895 0-.491.474-.895 1.054-.895h.578c.58 0 1.053.404 1.053.895 0 .493-.474.895-1.053.895"/>
            <path fill="#CFC5E0" d="M9.13 36.094H7.432a.277.277 0 0 1-.27-.284c0-.157.121-.285.27-.285h1.7c.148 0 .269.128.269.285a.278.278 0 0 1-.27.284"/>
            <path fill="#B4D0ED" d="M6.29 32.676a.493.493 0 0 1-.23-.058.446.446 0 0 1-.182-.616c.074-.128 1.842-3.138 6.655-2.893a.46.46 0 0 1 .447.477c-.013.25-.211.467-.495.43-4.14-.19-5.72 2.322-5.782 2.43a.479.479 0 0 1-.413.23"/>
        </g>
    </g>
</svg>
